<svg xmlns="http://www.w3.org/2000/svg" viewBox="0 0 263.088 76" xmlns:bx="https://boxy-svg.com">
  <defs>
    <bx:export>
      <bx:file format="svg"></bx:file>
    </bx:export>
  </defs>
  <path d="M 25.305 23.373 C 29.026 23.373 32.608 24.787 35.321 27.33 L 42.913 27.33 C 40.557 23.492 37.014 20.529 32.819 18.891 C 28.623 17.252 24.011 17.028 19.677 18.253 C 15.342 19.477 11.528 22.083 8.809 25.674 C 6.093 29.265 4.624 33.645 4.624 38.148 C 4.624 42.651 6.093 47.031 8.809 50.622 C 11.528 54.213 15.342 56.819 19.677 58.043 C 24.011 59.267 28.623 59.043 32.819 57.405 C 37.014 55.766 40.557 52.803 42.913 48.966 L 35.321 48.966 C 33.56 50.597 31.422 51.772 29.101 52.39 C 26.781 53.008 24.343 53.05 22.001 52.512 C 19.659 51.974 17.485 50.873 15.667 49.304 C 13.845 47.735 12.437 45.745 11.564 43.508 C 10.687 41.271 10.37 38.854 10.641 36.467 C 10.912 34.08 11.764 31.795 13.118 29.811 C 14.473 27.826 16.29 26.203 18.415 25.081 C 20.539 23.959 22.902 23.373 25.305 23.373 Z" fill="#050D17" style=""></path>
  <path d="M 73.462 30.787 C 70.68 28.534 67.204 27.312 63.624 27.33 C 61.203 27.322 58.814 27.873 56.64 28.939 C 54.466 30.005 52.566 31.557 51.09 33.476 C 49.614 35.394 48.599 37.628 48.125 40.002 C 47.65 42.376 47.732 44.827 48.36 47.166 C 48.987 49.504 50.146 51.667 51.742 53.485 C 53.339 55.303 55.335 56.729 57.574 57.651 C 59.812 58.574 62.234 58.968 64.649 58.803 C 67.064 58.638 69.409 57.919 71.502 56.701 L 71.502 48.966 C 70.099 50.845 68.073 52.164 65.787 52.686 C 63.501 53.208 61.104 52.9 59.025 51.816 C 56.947 50.732 55.318 48.944 54.437 46.77 C 53.557 44.597 53.478 42.182 54.216 39.956 C 54.954 37.73 56.458 35.839 58.465 34.621 C 60.468 33.404 62.84 32.94 65.155 33.312 C 67.471 33.685 69.578 34.869 71.1 36.652 C 72.622 38.436 73.459 40.704 73.462 43.049 L 73.462 50.926 L 79.379 50.926 L 79.379 27.33 L 73.462 27.33 L 73.462 30.787 Z" fill="#050D17" style=""></path>
  <path d="M 79.379 52.887 L 73.462 52.887 L 73.462 58.793 L 79.379 58.793 L 79.379 52.887 Z" fill="#EB5C01" style=""></path>
  <path d="M 91.177 27.33 L 85.26 27.33 L 85.26 58.822 L 91.177 58.822 L 91.177 27.33 Z" fill="#050D17" style=""></path>
  <path d="M 148.28 25.333 L 142.363 25.333 L 142.363 58.793 L 148.28 58.793 L 148.28 25.333 Z" fill="#050D17" style=""></path>
  <path d="M 114.81 27.33 C 113.131 27.326 111.471 27.68 109.941 28.368 C 108.41 29.057 107.044 30.063 105.934 31.322 C 104.833 30.061 103.474 29.052 101.949 28.363 C 100.424 27.674 98.768 27.321 97.094 27.33 C 95.746 27.317 94.405 27.546 93.138 28.007 L 93.138 34.744 C 94.218 33.756 95.63 33.208 97.094 33.211 C 98.661 33.22 100.16 33.847 101.268 34.955 C 102.375 36.062 103.002 37.562 103.011 39.128 L 103.011 58.804 L 108.893 58.804 L 108.893 39.128 C 108.893 37.559 109.516 36.054 110.626 34.944 C 111.735 33.834 113.24 33.211 114.81 33.211 C 116.379 33.211 117.884 33.834 118.994 34.944 C 120.103 36.054 120.727 37.559 120.727 39.128 L 120.727 58.804 L 126.608 58.804 L 126.608 39.128 C 126.608 35.999 125.365 32.998 123.152 30.785 C 120.939 28.573 117.938 27.33 114.81 27.33 Z" fill="#050D17" style=""></path>
  <path d="M 207.307 27.33 L 201.39 27.33 L 201.39 58.822 L 207.307 58.822 L 207.307 27.33 Z" fill="#050D17" style=""></path>
  <path d="M 195.509 27.33 L 189.592 27.33 L 189.592 58.822 L 195.509 58.822 L 195.509 27.33 Z" fill="#050D17" style=""></path>
  <path d="M 213.224 27.33 C 211.875 27.317 210.535 27.546 209.267 28.007 L 209.267 34.744 C 210.347 33.756 211.76 33.208 213.224 33.211 C 214.787 33.22 216.283 33.848 217.385 34.957 C 218.487 36.065 219.105 37.565 219.105 39.128 L 219.105 58.804 L 225.022 58.804 L 225.022 39.128 C 225.022 35.999 223.779 32.998 221.567 30.785 C 219.354 28.573 216.353 27.33 213.224 27.33 Z" fill="#050D17" style=""></path>
  <path d="M 236.856 17.492 L 230.939 17.492 L 230.939 58.825 L 236.856 58.825 L 236.856 17.492 Z" fill="#050D17" style=""></path>
  <path d="M 171.876 27.33 C 170.539 27.314 169.21 27.543 167.955 28.007 L 167.955 34.744 C 169.021 33.754 170.422 33.207 171.876 33.211 C 172.653 33.211 173.423 33.364 174.141 33.661 C 174.858 33.959 175.511 34.395 176.06 34.944 C 176.61 35.494 177.046 36.146 177.343 36.864 C 177.64 37.582 177.793 38.351 177.793 39.128 L 177.793 58.804 L 183.71 58.804 L 183.71 39.128 C 183.701 35.996 182.45 32.995 180.231 30.783 C 178.013 28.572 175.008 27.33 171.876 27.33 Z" fill="#050D17" style=""></path>
  <path d="M 132.525 17.492 L 132.525 23.373 L 160.078 23.373 L 160.078 58.804 L 165.959 58.804 L 165.959 17.492 L 132.525 17.492 Z" fill="#050D17" style=""></path>
  <path d="M 242.096 42.942 L 256.496 27.33 L 248.405 27.33 L 238.817 37.809 L 238.817 47.968 L 250.009 58.804 L 258.35 58.804 L 242.096 42.942 Z" fill="#050D17" style=""></path>
  <path d="M 190.496 16.972 L 186.312 21.156 L 190.489 25.332 L 194.672 21.148 L 190.496 16.972 Z" fill="#EB5C01" style=""></path>
  <path d="M 198.353 10.79 L 193.908 13.357 L 196.467 17.789 L 200.912 15.223 L 198.353 10.79 Z" fill="#EB5C01" style=""></path>
  <path d="M 192.018 4.737 L 187.852 5.853 L 188.973 10.037 L 193.139 8.92 L 192.018 4.737 Z" fill="#EB5C01" style=""></path>
</svg>